<svg width="33" height="33" viewBox="0 0 33 33" fill="none" xmlns="http://www.w3.org/2000/svg">
<path d="M11.5677 28.3197L1.1568 31.2347L4.07185 20.8238L23.1354 1.85282C23.3508 1.63247 23.6082 1.45738 23.8922 1.33785C24.1763 1.21831 24.4814 1.15674 24.7896 1.15674C25.0977 1.15674 25.4028 1.21831 25.6869 1.33785C25.971 1.45738 26.2283 1.63247 26.4437 1.85282L30.5387 5.97092C30.7555 6.18599 30.9277 6.44187 31.0451 6.72379C31.1626 7.00572 31.223 7.30811 31.223 7.61353C31.223 7.91894 31.1626 8.22133 31.0451 8.50326C30.9277 8.78518 30.7555 9.04106 30.5387 9.25614L11.5677 28.3197Z" stroke="url(#paint0_linear_36_59)" stroke-width="2.31353" stroke-linecap="round" stroke-linejoin="round"/>
<defs>
<linearGradient id="paint0_linear_36_59" x1="16.1899" y1="1.15674" x2="16.1899" y2="31.2347" gradientUnits="userSpaceOnUse">
<stop stop-color="#FF3336"/>
<stop offset="1" stop-color="#991F21"/>
</linearGradient>
</defs>
</svg>
