<svg width="170" height="70" viewBox="0 0 170 70" fill="none" xmlns="http://www.w3.org/2000/svg">
<path d="M26.97 19.184V17.56H38.222V19.184L35.032 19.59C34.4133 19.6673 34.046 19.8413 33.93 20.112C33.814 20.344 33.756 21.1173 33.756 22.432V57H30.566L9.28 22.606V52.128C9.28 53.4427 9.338 54.2353 9.454 54.506C9.57 54.738 9.93733 54.8927 10.556 54.97L13.746 55.376V57H2.494V55.376L5.684 54.97C6.30267 54.8927 6.67 54.738 6.786 54.506C6.902 54.2353 6.96 53.4427 6.96 52.128V22.432C6.96 21.1173 6.902 20.344 6.786 20.112C6.67 19.8413 6.30267 19.6673 5.684 19.59L2.494 19.184V17.56H14.152L31.436 45.342V22.432C31.436 21.1173 31.378 20.344 31.262 20.112C31.146 19.8413 30.7787 19.6673 30.16 19.59L26.97 19.184ZM93.5191 50.968C93.0164 53.3267 92.0498 55.028 90.6191 56.072C89.2271 57.0773 87.5258 57.58 85.5151 57.58C83.4658 57.58 81.7838 57.1353 80.4691 56.246C79.1544 55.318 78.1878 54.1 77.5691 52.592C76.9504 51.084 76.6411 49.4793 76.6411 47.778V32.466C76.6411 31.1513 76.5831 30.378 76.4671 30.146C76.3511 29.8753 75.9838 29.7013 75.3651 29.624L72.1751 29.218V27.594H76.6411V20.866L83.3111 19.532V27.594H92.5911V29.624H83.3111V48.938C83.3111 51.4127 83.6204 53.1333 84.2391 54.1C84.8578 55.028 85.6504 55.492 86.6171 55.492C87.6224 55.492 88.3958 55.1053 88.9371 54.332C89.5171 53.5587 89.8844 52.1473 90.0391 50.098L93.5191 50.968ZM121.912 50.098C121.216 52.8047 119.921 54.738 118.026 55.898C116.131 57.0193 113.927 57.58 111.414 57.58C106.774 57.58 103.294 56.246 100.974 53.578C98.6539 50.8713 97.4939 47.2947 97.4939 42.848V41.688C97.4939 37.2413 98.5766 33.684 100.742 31.016C102.946 28.348 106.117 27.014 110.254 27.014C112.574 27.014 114.623 27.478 116.402 28.406C118.219 29.2953 119.631 30.5907 120.636 32.292C121.68 33.9933 122.202 36.062 122.202 38.498C122.202 39.078 122.163 39.6967 122.086 40.354C122.047 41.0113 121.951 41.6687 121.796 42.326H104.628V44.008C104.628 48.1067 105.208 51.0647 106.368 52.882C107.528 54.6607 109.403 55.55 111.994 55.55C113.657 55.55 115.068 55.0667 116.228 54.1C117.388 53.0947 118.045 51.4127 118.2 49.054L121.912 50.098ZM110.254 29.044C108.359 29.044 106.948 29.914 106.02 31.654C105.092 33.394 104.628 36.2747 104.628 40.296H115.126C115.281 39.5227 115.377 38.8073 115.416 38.15C115.493 37.454 115.532 36.816 115.532 36.236C115.532 33.7613 115.049 31.944 114.082 30.784C113.115 29.624 111.839 29.044 110.254 29.044Z" fill="white"/>
<path d="M68.5488 41.688V42.848C68.5488 47.2947 67.3888 50.8713 65.0688 53.578C62.7874 56.246 59.5201 57.58 55.2668 57.58C51.0134 57.58 47.7268 56.246 45.4068 53.578C43.1254 50.8713 41.9848 47.2947 41.9848 42.848V41.688C41.9848 37.2413 43.1254 33.684 45.4068 31.016C47.7268 28.348 51.0134 27.014 55.2668 27.014C59.5201 27.014 62.7874 28.348 65.0688 31.016C67.3888 33.684 68.5488 37.2413 68.5488 41.688ZM61.4148 40.528C61.4148 36.3907 60.8928 33.452 59.8488 31.712C58.8048 29.9333 57.2774 29.044 55.2668 29.044C53.2948 29.044 51.7674 29.9333 50.6848 31.712C49.6408 33.452 49.1188 36.3907 49.1188 40.528V44.008C49.1188 48.1067 49.6408 51.0647 50.6848 52.882C51.7674 54.6607 53.2948 55.55 55.2668 55.55C57.2774 55.55 58.8048 54.6607 59.8488 52.882C60.8928 51.0647 61.4148 48.1067 61.4148 44.008V40.528Z" fill="#FD0C0C"/>
<rect x="138" y="27" width="32" height="32" rx="16" fill="url(#paint0_linear_5_42)"/>
<circle cx="149" cy="37" r="3" fill="white"/>
<circle cx="159" cy="37" r="3" fill="white"/>
<circle cx="150" cy="37" r="2" fill="#111111"/>
<circle cx="158" cy="37" r="2" fill="#111111"/>
<path d="M147 46C152.479 50.0443 155.54 49.9554 161 46" stroke="white" stroke-linecap="round"/>
<defs>
<linearGradient id="paint0_linear_5_42" x1="154" y1="27" x2="154" y2="59" gradientUnits="userSpaceOnUse">
<stop stop-color="#FF3336"/>
<stop offset="1" stop-color="#991F21"/>
</linearGradient>
</defs>
</svg>
