<svg width="124" height="48" viewBox="0 0 124 48" fill="none" xmlns="http://www.w3.org/2000/svg">
<path d="M19.6722 13.1547V12.0411H27.8796V13.1547L25.5527 13.4331C25.1015 13.4861 24.8335 13.6055 24.7489 13.7911C24.6643 13.9502 24.622 14.4804 24.622 15.3819V39.0857H22.2952L6.76894 15.5013V35.7449C6.76894 36.6464 6.81124 37.1899 6.89586 37.3755C6.98047 37.5346 7.2484 37.6407 7.69967 37.6937L10.0265 37.9721V39.0857H1.81915V37.9721L4.14597 37.6937C4.59724 37.6407 4.86517 37.5346 4.94979 37.3755C5.0344 37.1899 5.0767 36.6464 5.0767 35.7449V15.3819C5.0767 14.4804 5.0344 13.9502 4.94979 13.7911C4.86517 13.6055 4.59724 13.4861 4.14597 13.4331L1.81915 13.1547V12.0411H10.3226L22.9298 31.0917V15.3819C22.9298 14.4804 22.8875 13.9502 22.8029 13.7911C22.7182 13.6055 22.4503 13.4861 21.999 13.4331L19.6722 13.1547ZM68.2139 34.9495C67.8472 36.5669 67.1422 37.7335 66.0986 38.4494C65.0833 39.1387 63.8423 39.4834 62.3757 39.4834C60.8809 39.4834 59.654 39.1785 58.6951 38.5687C57.7361 37.9323 57.0311 37.0971 56.5798 36.0631C56.1285 35.029 55.9029 33.9287 55.9029 32.7621V22.2624C55.9029 21.3609 55.8606 20.8306 55.776 20.6715C55.6914 20.4859 55.4234 20.3666 54.9722 20.3136L52.6453 20.0352V18.9216H55.9029V14.3081L60.7681 13.3934V18.9216H67.537V20.3136H60.7681V33.5575C60.7681 35.2544 60.9937 36.4343 61.4449 37.0971C61.8962 37.7335 62.4744 38.0517 63.1795 38.0517C63.9128 38.0517 64.4769 37.7865 64.8717 37.2562C65.2948 36.726 65.5627 35.7581 65.6755 34.3529L68.2139 34.9495ZM88.924 34.3529C88.4163 36.2089 87.4717 37.5346 86.0895 38.3301C84.7073 39.0989 83.0996 39.4834 81.2666 39.4834C77.8822 39.4834 75.3438 38.5687 73.6516 36.7392C71.9593 34.8832 71.1131 32.4306 71.1131 29.3815V28.5861C71.1131 25.5369 71.9029 23.0976 73.4823 21.2681C75.09 19.4386 77.4029 18.5239 80.4205 18.5239C82.1127 18.5239 83.6073 18.8421 84.9049 19.4784C86.2303 20.0882 87.2602 20.9765 87.9933 22.1431C88.7548 23.3097 89.1355 24.7282 89.1355 26.3986C89.1355 26.7963 89.1071 27.2206 89.0509 27.6713C89.0225 28.122 88.9524 28.5728 88.8394 29.0235H76.3168V30.1769C76.3168 32.9874 76.7399 35.0158 77.586 36.2619C78.4321 37.4816 79.7998 38.0914 81.6897 38.0914C82.9027 38.0914 83.9319 37.76 84.778 37.0971C85.6241 36.4078 86.1034 35.2544 86.2164 33.637L88.924 34.3529ZM80.4205 19.9159C79.0383 19.9159 78.0091 20.5125 77.3322 21.7056C76.6553 22.8987 76.3168 24.8741 76.3168 27.6315H83.9742C84.0873 27.1013 84.1573 26.6107 84.1857 26.16C84.2419 25.6827 84.2703 25.2453 84.2703 24.8475C84.2703 23.1506 83.918 21.9045 83.2127 21.109C82.5074 20.3136 81.5766 19.9159 80.4205 19.9159Z" fill="white"/>
<path d="M50.0003 28.586V29.3815C50.0003 32.4306 49.1542 34.8832 47.462 36.7392C45.7979 38.5687 43.4147 39.4834 40.3123 39.4834C37.2098 39.4834 34.8125 38.5687 33.1203 36.7392C31.4562 34.8832 30.6242 32.4306 30.6242 29.3815V28.586C30.6242 25.5369 31.4562 23.0976 33.1203 21.2681C34.8125 19.4386 37.2098 18.5239 40.3123 18.5239C43.4147 18.5239 45.7979 19.4386 47.462 21.2681C49.1542 23.0976 50.0003 25.5369 50.0003 28.586ZM44.7967 27.7906C44.7967 24.9536 44.4159 22.9385 43.6544 21.7454C42.8929 20.5257 41.7788 19.9159 40.3123 19.9159C38.8739 19.9159 37.7598 20.5257 36.9701 21.7454C36.2086 22.9385 35.8278 24.9536 35.8278 27.7906V30.1769C35.8278 32.9874 36.2086 35.0158 36.9701 36.2619C37.7598 37.4816 38.8739 38.0914 40.3123 38.0914C41.7788 38.0914 42.8929 37.4816 43.6544 36.2619C44.4159 35.0158 44.7967 32.9874 44.7967 30.1769V27.7906Z" fill="#FD0C0C"/>
<path d="M120 29.5C120 22.5964 114.627 17 108 17C101.373 17 96 22.5964 96 29.5C96 36.4036 101.373 42 108 42C114.627 42 120 36.4036 120 29.5Z" fill="url(#paint0_linear_50_10)"/>
<path d="M104.25 27.1562C105.493 27.1562 106.5 26.1069 106.5 24.8125C106.5 23.5181 105.493 22.4688 104.25 22.4688C103.007 22.4688 102 23.5181 102 24.8125C102 26.1069 103.007 27.1562 104.25 27.1562Z" fill="white"/>
<path d="M111.75 27.1562C112.993 27.1562 114 26.1069 114 24.8125C114 23.5181 112.993 22.4688 111.75 22.4688C110.507 22.4688 109.5 23.5181 109.5 24.8125C109.5 26.1069 110.507 27.1562 111.75 27.1562Z" fill="white"/>
<path d="M105 26.375C105.828 26.375 106.5 25.6754 106.5 24.8125C106.5 23.9496 105.828 23.25 105 23.25C104.172 23.25 103.5 23.9496 103.5 24.8125C103.5 25.6754 104.172 26.375 105 26.375Z" fill="#111111"/>
<path d="M111 26.375C111.828 26.375 112.5 25.6754 112.5 24.8125C112.5 23.9496 111.828 23.25 111 23.25C110.172 23.25 109.5 23.9496 109.5 24.8125C109.5 25.6754 110.172 26.375 111 26.375Z" fill="#111111"/>
<path d="M102.75 31.8438C106.859 35.0034 109.155 34.9339 113.25 31.8438" stroke="white" stroke-linecap="round"/>
<defs>
<linearGradient id="paint0_linear_50_10" x1="108" y1="17" x2="108" y2="42" gradientUnits="userSpaceOnUse">
<stop stop-color="#FF3336"/>
<stop offset="1" stop-color="#991F21"/>
</linearGradient>
</defs>
</svg>
